<mxfile host="app.diagrams.net" agent="Mozilla/5.0 (Windows NT 10.0; Win64; x64) AppleWebKit/537.36 (KHTML, like Gecko) Chrome/130.0.0.0 Safari/537.36" version="24.8.4">
  <diagram name="Страница — 1" id="YhNN-B2c41vuA7pZLgMu">
    <mxGraphModel dx="1290" dy="565" grid="1" gridSize="10" guides="1" tooltips="1" connect="1" arrows="1" fold="1" page="1" pageScale="1" pageWidth="1169" pageHeight="827" math="0" shadow="0">
      <root>
        <mxCell id="0" />
        <mxCell id="1" parent="0" />
        <mxCell id="h4UDU3MdKV_MsNox_-0J-1" value="" style="rounded=1;whiteSpace=wrap;html=1;" parent="1" vertex="1">
          <mxGeometry x="80" y="200" width="190" height="320" as="geometry" />
        </mxCell>
        <mxCell id="h4UDU3MdKV_MsNox_-0J-2" value="" style="ellipse;whiteSpace=wrap;html=1;aspect=fixed;" parent="1" vertex="1">
          <mxGeometry x="160" y="480" width="30" height="30" as="geometry" />
        </mxCell>
        <mxCell id="h4UDU3MdKV_MsNox_-0J-3" value="" style="rounded=0;whiteSpace=wrap;html=1;" parent="1" vertex="1">
          <mxGeometry x="92.5" y="230" width="165" height="240" as="geometry" />
        </mxCell>
        <mxCell id="h4UDU3MdKV_MsNox_-0J-4" value="" style="rounded=1;whiteSpace=wrap;html=1;" parent="1" vertex="1">
          <mxGeometry x="390" y="200" width="260" height="320" as="geometry" />
        </mxCell>
        <mxCell id="h4UDU3MdKV_MsNox_-0J-5" value="" style="shape=cylinder3;whiteSpace=wrap;html=1;boundedLbl=1;backgroundOutline=1;size=15;" parent="1" vertex="1">
          <mxGeometry x="770" y="200" width="210" height="320" as="geometry" />
        </mxCell>
        <mxCell id="h4UDU3MdKV_MsNox_-0J-6" value="" style="endArrow=classic;startArrow=classic;html=1;rounded=0;entryX=0;entryY=0.5;entryDx=0;entryDy=0;exitX=1;exitY=0.5;exitDx=0;exitDy=0;" parent="1" edge="1">
          <mxGeometry width="50" height="50" relative="1" as="geometry">
            <mxPoint x="270" y="359.5" as="sourcePoint" />
            <mxPoint x="390" y="359.5" as="targetPoint" />
          </mxGeometry>
        </mxCell>
        <mxCell id="h4UDU3MdKV_MsNox_-0J-8" value="&lt;font style=&quot;font-size: 15px;&quot;&gt;&lt;b&gt;1&lt;/b&gt;&lt;/font&gt;" style="text;strokeColor=none;align=center;fillColor=none;html=1;verticalAlign=middle;whiteSpace=wrap;rounded=0;labelBorderColor=#FFFFFF;labelBackgroundColor=#FFFFFF;" parent="1" vertex="1">
          <mxGeometry x="310" y="340" width="40" height="40" as="geometry" />
        </mxCell>
        <mxCell id="h4UDU3MdKV_MsNox_-0J-13" value="" style="endArrow=classic;startArrow=classic;html=1;rounded=0;entryX=0;entryY=0.5;entryDx=0;entryDy=0;exitX=1;exitY=0.5;exitDx=0;exitDy=0;" parent="1" edge="1">
          <mxGeometry width="50" height="50" relative="1" as="geometry">
            <mxPoint x="650" y="359.5" as="sourcePoint" />
            <mxPoint x="770" y="359.5" as="targetPoint" />
          </mxGeometry>
        </mxCell>
        <mxCell id="h4UDU3MdKV_MsNox_-0J-14" value="&lt;font style=&quot;font-size: 15px;&quot;&gt;&lt;b&gt;2&lt;/b&gt;&lt;/font&gt;" style="text;strokeColor=none;align=center;fillColor=none;html=1;verticalAlign=middle;whiteSpace=wrap;rounded=0;labelBorderColor=#FFFFFF;labelBackgroundColor=#FFFFFF;" parent="1" vertex="1">
          <mxGeometry x="690" y="340" width="40" height="40" as="geometry" />
        </mxCell>
        <mxCell id="h4UDU3MdKV_MsNox_-0J-19" value="&lt;font style=&quot;font-size: 15px;&quot;&gt;&lt;b&gt;A&lt;/b&gt;&lt;/font&gt;" style="text;strokeColor=none;align=center;fillColor=none;html=1;verticalAlign=middle;whiteSpace=wrap;rounded=0;" parent="1" vertex="1">
          <mxGeometry x="152.5" y="150" width="45" height="30" as="geometry" />
        </mxCell>
        <mxCell id="h4UDU3MdKV_MsNox_-0J-20" value="&lt;span style=&quot;font-size: 15px;&quot;&gt;&lt;b&gt;B&lt;/b&gt;&lt;/span&gt;" style="text;strokeColor=none;align=center;fillColor=none;html=1;verticalAlign=middle;whiteSpace=wrap;rounded=0;" parent="1" vertex="1">
          <mxGeometry x="497.5" y="150" width="45" height="30" as="geometry" />
        </mxCell>
        <mxCell id="h4UDU3MdKV_MsNox_-0J-21" value="&lt;font style=&quot;font-size: 15px;&quot;&gt;&lt;b&gt;C&lt;/b&gt;&lt;/font&gt;" style="text;strokeColor=none;align=center;fillColor=none;html=1;verticalAlign=middle;whiteSpace=wrap;rounded=0;" parent="1" vertex="1">
          <mxGeometry x="852.5" y="150" width="45" height="30" as="geometry" />
        </mxCell>
        <mxCell id="h4UDU3MdKV_MsNox_-0J-22" value="&lt;div style=&quot;font-size: 16px;&quot;&gt;&lt;span style=&quot;background-color: initial;&quot;&gt;&lt;font style=&quot;font-size: 16px;&quot;&gt;&lt;b&gt;A&lt;/b&gt; - фронтенд, мобильное приложение&lt;/font&gt;&lt;/span&gt;&lt;/div&gt;&lt;div style=&quot;font-size: 16px;&quot;&gt;&lt;font style=&quot;font-size: 16px;&quot;&gt;&lt;b&gt;B&lt;/b&gt; - бэкенд / сервер&amp;nbsp;&lt;/font&gt;&lt;/div&gt;&lt;div style=&quot;font-size: 16px;&quot;&gt;&lt;font style=&quot;font-size: 16px;&quot;&gt;&lt;b&gt;C &lt;/b&gt;- база данных, PG&lt;/font&gt;&lt;/div&gt;" style="text;strokeColor=none;align=left;fillColor=none;html=1;verticalAlign=middle;whiteSpace=wrap;rounded=0;" parent="1" vertex="1">
          <mxGeometry x="80" y="580" width="297.5" height="90" as="geometry" />
        </mxCell>
        <mxCell id="h4UDU3MdKV_MsNox_-0J-23" value="&lt;font style=&quot;font-size: 16px;&quot;&gt;&lt;b&gt;1 &lt;/b&gt;- протокол взаимодествия HTTPS. Запрос на получение данных о наличии определенного ингридиента в косметике&lt;/font&gt;&lt;div&gt;&lt;span style=&quot;font-size: 16px;&quot;&gt;&lt;br&gt;&lt;/span&gt;&lt;div style=&quot;font-size: 16px;&quot;&gt;&lt;font style=&quot;font-size: 16px;&quot;&gt;&lt;b&gt;2 &lt;/b&gt;- получение/сохранения данных из/в БД о наличии ингридиента в составе косметики&lt;/font&gt;&lt;/div&gt;&lt;/div&gt;" style="text;strokeColor=none;align=left;fillColor=none;html=1;verticalAlign=middle;whiteSpace=wrap;rounded=0;" parent="1" vertex="1">
          <mxGeometry x="80" y="660" width="420" height="150" as="geometry" />
        </mxCell>
        <mxCell id="jIGBAZdyDKZ7Kn-YVD62-1" value="Получение данных о наличии опреденного ингридиента в составе" style="text;strokeColor=none;align=center;fillColor=none;html=1;verticalAlign=middle;whiteSpace=wrap;rounded=0;" parent="1" vertex="1">
          <mxGeometry x="103.75" y="290" width="142.5" height="100" as="geometry" />
        </mxCell>
        <mxCell id="jIGBAZdyDKZ7Kn-YVD62-2" value="Запрос/передача данных о наличии ингридиента в БД" style="text;strokeColor=none;align=center;fillColor=none;html=1;verticalAlign=middle;whiteSpace=wrap;rounded=0;" parent="1" vertex="1">
          <mxGeometry x="444.38" y="290" width="151.25" height="100" as="geometry" />
        </mxCell>
        <mxCell id="jIGBAZdyDKZ7Kn-YVD62-3" value="Хранение данных о косметических ингридиентах" style="text;strokeColor=none;align=center;fillColor=none;html=1;verticalAlign=middle;whiteSpace=wrap;rounded=0;" parent="1" vertex="1">
          <mxGeometry x="803.75" y="290" width="142.5" height="100" as="geometry" />
        </mxCell>
        <mxCell id="G5_2ogjeCoOv_PMWdNw2-1" style="edgeStyle=orthogonalEdgeStyle;rounded=0;orthogonalLoop=1;jettySize=auto;html=1;" edge="1" parent="1" source="G5_2ogjeCoOv_PMWdNw2-2" target="G5_2ogjeCoOv_PMWdNw2-5">
          <mxGeometry relative="1" as="geometry" />
        </mxCell>
        <mxCell id="G5_2ogjeCoOv_PMWdNw2-2" value="" style="rounded=0;whiteSpace=wrap;html=1;" vertex="1" parent="1">
          <mxGeometry x="180" y="850" width="110" height="70" as="geometry" />
        </mxCell>
        <mxCell id="G5_2ogjeCoOv_PMWdNw2-3" value="Клиент" style="text;strokeColor=none;align=center;fillColor=none;html=1;verticalAlign=middle;whiteSpace=wrap;rounded=0;" vertex="1" parent="1">
          <mxGeometry x="205" y="870" width="60" height="30" as="geometry" />
        </mxCell>
        <mxCell id="G5_2ogjeCoOv_PMWdNw2-4" style="edgeStyle=orthogonalEdgeStyle;rounded=0;orthogonalLoop=1;jettySize=auto;html=1;entryX=0.5;entryY=0;entryDx=0;entryDy=0;" edge="1" parent="1" source="G5_2ogjeCoOv_PMWdNw2-5" target="G5_2ogjeCoOv_PMWdNw2-6">
          <mxGeometry relative="1" as="geometry" />
        </mxCell>
        <mxCell id="G5_2ogjeCoOv_PMWdNw2-5" value="" style="rounded=0;whiteSpace=wrap;html=1;" vertex="1" parent="1">
          <mxGeometry x="180" y="1000" width="110" height="70" as="geometry" />
        </mxCell>
        <mxCell id="G5_2ogjeCoOv_PMWdNw2-6" value="" style="rounded=0;whiteSpace=wrap;html=1;" vertex="1" parent="1">
          <mxGeometry x="180" y="1140" width="110" height="70" as="geometry" />
        </mxCell>
        <mxCell id="G5_2ogjeCoOv_PMWdNw2-7" value="Продукт" style="text;strokeColor=none;align=center;fillColor=none;html=1;verticalAlign=middle;whiteSpace=wrap;rounded=0;" vertex="1" parent="1">
          <mxGeometry x="205" y="1020" width="60" height="30" as="geometry" />
        </mxCell>
        <mxCell id="G5_2ogjeCoOv_PMWdNw2-8" value="Ингридиент" style="text;strokeColor=none;align=center;fillColor=none;html=1;verticalAlign=middle;whiteSpace=wrap;rounded=0;" vertex="1" parent="1">
          <mxGeometry x="185" y="1160" width="100" height="30" as="geometry" />
        </mxCell>
        <mxCell id="G5_2ogjeCoOv_PMWdNw2-9" value="Ищет" style="text;strokeColor=none;align=center;fillColor=default;html=1;verticalAlign=middle;whiteSpace=wrap;rounded=0;" vertex="1" parent="1">
          <mxGeometry x="205" y="950" width="60" height="30" as="geometry" />
        </mxCell>
        <mxCell id="G5_2ogjeCoOv_PMWdNw2-10" value="Содержит" style="text;strokeColor=none;align=center;fillColor=default;html=1;verticalAlign=middle;whiteSpace=wrap;rounded=0;" vertex="1" parent="1">
          <mxGeometry x="205" y="1090" width="60" height="30" as="geometry" />
        </mxCell>
        <mxCell id="G5_2ogjeCoOv_PMWdNw2-11" value="" style="rounded=0;whiteSpace=wrap;html=1;" vertex="1" parent="1">
          <mxGeometry x="400" y="850" width="110" height="70" as="geometry" />
        </mxCell>
        <mxCell id="G5_2ogjeCoOv_PMWdNw2-12" value="Клиент" style="text;strokeColor=none;align=center;fillColor=none;html=1;verticalAlign=middle;whiteSpace=wrap;rounded=0;" vertex="1" parent="1">
          <mxGeometry x="425" y="870" width="60" height="30" as="geometry" />
        </mxCell>
        <mxCell id="G5_2ogjeCoOv_PMWdNw2-13" value="1. Фамилия&amp;nbsp;&lt;div&gt;2. Имя&lt;div&gt;3. Дата рождения&lt;/div&gt;&lt;div&gt;4. Эл. почта&lt;/div&gt;&lt;div&gt;5. Размер скидки&lt;/div&gt;&lt;div style=&quot;&quot;&gt;6. Количество бонусов&lt;/div&gt;&lt;/div&gt;" style="text;strokeColor=none;align=left;fillColor=none;html=1;verticalAlign=middle;whiteSpace=wrap;rounded=0;" vertex="1" parent="1">
          <mxGeometry x="400" y="920" width="120" height="110" as="geometry" />
        </mxCell>
        <mxCell id="G5_2ogjeCoOv_PMWdNw2-14" value="" style="rounded=0;whiteSpace=wrap;html=1;" vertex="1" parent="1">
          <mxGeometry x="560" y="850" width="110" height="70" as="geometry" />
        </mxCell>
        <mxCell id="G5_2ogjeCoOv_PMWdNw2-15" value="Продукт" style="text;strokeColor=none;align=center;fillColor=none;html=1;verticalAlign=middle;whiteSpace=wrap;rounded=0;" vertex="1" parent="1">
          <mxGeometry x="585" y="870" width="60" height="30" as="geometry" />
        </mxCell>
        <mxCell id="G5_2ogjeCoOv_PMWdNw2-16" value="1. Бренд&lt;div&gt;2. Название&lt;/div&gt;&lt;div&gt;3. Категория&lt;/div&gt;&lt;div&gt;4. Объем&lt;/div&gt;&lt;div&gt;5. Наличие&lt;/div&gt;&lt;div&gt;6. Ингридиенты&lt;/div&gt;" style="text;strokeColor=none;align=left;fillColor=none;html=1;verticalAlign=middle;whiteSpace=wrap;rounded=0;" vertex="1" parent="1">
          <mxGeometry x="560" y="910" width="120" height="120" as="geometry" />
        </mxCell>
        <mxCell id="G5_2ogjeCoOv_PMWdNw2-17" value="" style="rounded=0;whiteSpace=wrap;html=1;" vertex="1" parent="1">
          <mxGeometry x="720" y="850" width="110" height="70" as="geometry" />
        </mxCell>
        <mxCell id="G5_2ogjeCoOv_PMWdNw2-18" value="Ингридиент" style="text;strokeColor=none;align=center;fillColor=none;html=1;verticalAlign=middle;whiteSpace=wrap;rounded=0;" vertex="1" parent="1">
          <mxGeometry x="725" y="870" width="100" height="30" as="geometry" />
        </mxCell>
        <mxCell id="G5_2ogjeCoOv_PMWdNw2-19" value="1.&lt;span style=&quot;background-color: initial;&quot;&gt;&amp;nbsp;INCI&lt;/span&gt;" style="text;strokeColor=none;align=left;fillColor=none;html=1;verticalAlign=middle;whiteSpace=wrap;rounded=0;" vertex="1" parent="1">
          <mxGeometry x="720" y="910" width="140" height="60" as="geometry" />
        </mxCell>
        <mxCell id="G5_2ogjeCoOv_PMWdNw2-20" style="edgeStyle=orthogonalEdgeStyle;rounded=0;orthogonalLoop=1;jettySize=auto;html=1;entryX=1;entryY=0.5;entryDx=0;entryDy=0;exitX=1;exitY=0.5;exitDx=0;exitDy=0;" edge="1" parent="1" source="G5_2ogjeCoOv_PMWdNw2-2" target="G5_2ogjeCoOv_PMWdNw2-6">
          <mxGeometry relative="1" as="geometry">
            <Array as="points">
              <mxPoint x="320" y="885" />
              <mxPoint x="320" y="1175" />
            </Array>
          </mxGeometry>
        </mxCell>
        <mxCell id="G5_2ogjeCoOv_PMWdNw2-21" value="Ищет" style="text;strokeColor=none;align=center;fillColor=default;html=1;verticalAlign=middle;whiteSpace=wrap;rounded=0;" vertex="1" parent="1">
          <mxGeometry x="290" y="950" width="60" height="30" as="geometry" />
        </mxCell>
        <mxCell id="G5_2ogjeCoOv_PMWdNw2-22" value="" style="shape=table;startSize=0;container=1;collapsible=0;childLayout=tableLayout;align=left;" vertex="1" parent="1">
          <mxGeometry x="120" y="1280" width="800" height="320" as="geometry" />
        </mxCell>
        <mxCell id="G5_2ogjeCoOv_PMWdNw2-23" value="" style="shape=tableRow;horizontal=0;startSize=0;swimlaneHead=0;swimlaneBody=0;strokeColor=inherit;top=0;left=0;bottom=0;right=0;collapsible=0;dropTarget=0;fillColor=none;points=[[0,0.5],[1,0.5]];portConstraint=eastwest;" vertex="1" parent="G5_2ogjeCoOv_PMWdNw2-22">
          <mxGeometry width="800" height="40" as="geometry" />
        </mxCell>
        <mxCell id="G5_2ogjeCoOv_PMWdNw2-24" value="Родительская сущность" style="shape=partialRectangle;html=1;whiteSpace=wrap;connectable=0;strokeColor=inherit;overflow=hidden;fillColor=none;top=0;left=0;bottom=0;right=0;pointerEvents=1;align=center;fontStyle=1" vertex="1" parent="G5_2ogjeCoOv_PMWdNw2-23">
          <mxGeometry width="267" height="40" as="geometry">
            <mxRectangle width="267" height="40" as="alternateBounds" />
          </mxGeometry>
        </mxCell>
        <mxCell id="G5_2ogjeCoOv_PMWdNw2-25" value="Атрибут" style="shape=partialRectangle;html=1;whiteSpace=wrap;connectable=0;strokeColor=inherit;overflow=hidden;fillColor=none;top=0;left=0;bottom=0;right=0;pointerEvents=1;fontStyle=1" vertex="1" parent="G5_2ogjeCoOv_PMWdNw2-23">
          <mxGeometry x="267" width="266" height="40" as="geometry">
            <mxRectangle width="266" height="40" as="alternateBounds" />
          </mxGeometry>
        </mxCell>
        <mxCell id="G5_2ogjeCoOv_PMWdNw2-26" value="Описание" style="shape=partialRectangle;html=1;whiteSpace=wrap;connectable=0;strokeColor=inherit;overflow=hidden;fillColor=none;top=0;left=0;bottom=0;right=0;pointerEvents=1;fontStyle=1" vertex="1" parent="G5_2ogjeCoOv_PMWdNw2-23">
          <mxGeometry x="533" width="267" height="40" as="geometry">
            <mxRectangle width="267" height="40" as="alternateBounds" />
          </mxGeometry>
        </mxCell>
        <mxCell id="G5_2ogjeCoOv_PMWdNw2-27" value="" style="shape=tableRow;horizontal=0;startSize=0;swimlaneHead=0;swimlaneBody=0;strokeColor=inherit;top=0;left=0;bottom=0;right=0;collapsible=0;dropTarget=0;fillColor=none;points=[[0,0.5],[1,0.5]];portConstraint=eastwest;" vertex="1" parent="G5_2ogjeCoOv_PMWdNw2-22">
          <mxGeometry y="40" width="800" height="40" as="geometry" />
        </mxCell>
        <mxCell id="G5_2ogjeCoOv_PMWdNw2-28" value="Клиент" style="shape=partialRectangle;html=1;whiteSpace=wrap;connectable=0;strokeColor=inherit;overflow=hidden;fillColor=none;top=0;left=0;bottom=0;right=0;pointerEvents=1;fontStyle=0" vertex="1" parent="G5_2ogjeCoOv_PMWdNw2-27">
          <mxGeometry width="267" height="40" as="geometry">
            <mxRectangle width="267" height="40" as="alternateBounds" />
          </mxGeometry>
        </mxCell>
        <mxCell id="G5_2ogjeCoOv_PMWdNw2-29" value="----" style="shape=partialRectangle;html=1;whiteSpace=wrap;connectable=0;strokeColor=inherit;overflow=hidden;fillColor=none;top=0;left=0;bottom=0;right=0;pointerEvents=1;" vertex="1" parent="G5_2ogjeCoOv_PMWdNw2-27">
          <mxGeometry x="267" width="266" height="40" as="geometry">
            <mxRectangle width="266" height="40" as="alternateBounds" />
          </mxGeometry>
        </mxCell>
        <mxCell id="G5_2ogjeCoOv_PMWdNw2-30" value="Объект пользователя" style="shape=partialRectangle;html=1;whiteSpace=wrap;connectable=0;strokeColor=inherit;overflow=hidden;fillColor=none;top=0;left=0;bottom=0;right=0;pointerEvents=1;" vertex="1" parent="G5_2ogjeCoOv_PMWdNw2-27">
          <mxGeometry x="533" width="267" height="40" as="geometry">
            <mxRectangle width="267" height="40" as="alternateBounds" />
          </mxGeometry>
        </mxCell>
        <mxCell id="G5_2ogjeCoOv_PMWdNw2-31" value="" style="shape=tableRow;horizontal=0;startSize=0;swimlaneHead=0;swimlaneBody=0;strokeColor=inherit;top=0;left=0;bottom=0;right=0;collapsible=0;dropTarget=0;fillColor=none;points=[[0,0.5],[1,0.5]];portConstraint=eastwest;" vertex="1" parent="G5_2ogjeCoOv_PMWdNw2-22">
          <mxGeometry y="80" width="800" height="40" as="geometry" />
        </mxCell>
        <mxCell id="G5_2ogjeCoOv_PMWdNw2-32" value="" style="shape=partialRectangle;html=1;whiteSpace=wrap;connectable=0;strokeColor=inherit;overflow=hidden;fillColor=none;top=0;left=0;bottom=0;right=0;pointerEvents=1;" vertex="1" parent="G5_2ogjeCoOv_PMWdNw2-31">
          <mxGeometry width="267" height="40" as="geometry">
            <mxRectangle width="267" height="40" as="alternateBounds" />
          </mxGeometry>
        </mxCell>
        <mxCell id="G5_2ogjeCoOv_PMWdNw2-33" value="Фамилия" style="shape=partialRectangle;html=1;whiteSpace=wrap;connectable=0;strokeColor=inherit;overflow=hidden;fillColor=none;top=0;left=0;bottom=0;right=0;pointerEvents=1;" vertex="1" parent="G5_2ogjeCoOv_PMWdNw2-31">
          <mxGeometry x="267" width="266" height="40" as="geometry">
            <mxRectangle width="266" height="40" as="alternateBounds" />
          </mxGeometry>
        </mxCell>
        <mxCell id="G5_2ogjeCoOv_PMWdNw2-34" value="" style="shape=partialRectangle;html=1;whiteSpace=wrap;connectable=0;strokeColor=inherit;overflow=hidden;fillColor=none;top=0;left=0;bottom=0;right=0;pointerEvents=1;" vertex="1" parent="G5_2ogjeCoOv_PMWdNw2-31">
          <mxGeometry x="533" width="267" height="40" as="geometry">
            <mxRectangle width="267" height="40" as="alternateBounds" />
          </mxGeometry>
        </mxCell>
        <mxCell id="G5_2ogjeCoOv_PMWdNw2-35" value="" style="shape=tableRow;horizontal=0;startSize=0;swimlaneHead=0;swimlaneBody=0;strokeColor=inherit;top=0;left=0;bottom=0;right=0;collapsible=0;dropTarget=0;fillColor=none;points=[[0,0.5],[1,0.5]];portConstraint=eastwest;" vertex="1" parent="G5_2ogjeCoOv_PMWdNw2-22">
          <mxGeometry y="120" width="800" height="40" as="geometry" />
        </mxCell>
        <mxCell id="G5_2ogjeCoOv_PMWdNw2-36" value="" style="shape=partialRectangle;html=1;whiteSpace=wrap;connectable=0;strokeColor=inherit;overflow=hidden;fillColor=none;top=0;left=0;bottom=0;right=0;pointerEvents=1;" vertex="1" parent="G5_2ogjeCoOv_PMWdNw2-35">
          <mxGeometry width="267" height="40" as="geometry">
            <mxRectangle width="267" height="40" as="alternateBounds" />
          </mxGeometry>
        </mxCell>
        <mxCell id="G5_2ogjeCoOv_PMWdNw2-37" value="Имя" style="shape=partialRectangle;html=1;whiteSpace=wrap;connectable=0;strokeColor=inherit;overflow=hidden;fillColor=none;top=0;left=0;bottom=0;right=0;pointerEvents=1;" vertex="1" parent="G5_2ogjeCoOv_PMWdNw2-35">
          <mxGeometry x="267" width="266" height="40" as="geometry">
            <mxRectangle width="266" height="40" as="alternateBounds" />
          </mxGeometry>
        </mxCell>
        <mxCell id="G5_2ogjeCoOv_PMWdNw2-38" value="" style="shape=partialRectangle;html=1;whiteSpace=wrap;connectable=0;strokeColor=inherit;overflow=hidden;fillColor=none;top=0;left=0;bottom=0;right=0;pointerEvents=1;" vertex="1" parent="G5_2ogjeCoOv_PMWdNw2-35">
          <mxGeometry x="533" width="267" height="40" as="geometry">
            <mxRectangle width="267" height="40" as="alternateBounds" />
          </mxGeometry>
        </mxCell>
        <mxCell id="G5_2ogjeCoOv_PMWdNw2-39" value="" style="shape=tableRow;horizontal=0;startSize=0;swimlaneHead=0;swimlaneBody=0;strokeColor=inherit;top=0;left=0;bottom=0;right=0;collapsible=0;dropTarget=0;fillColor=none;points=[[0,0.5],[1,0.5]];portConstraint=eastwest;" vertex="1" parent="G5_2ogjeCoOv_PMWdNw2-22">
          <mxGeometry y="160" width="800" height="40" as="geometry" />
        </mxCell>
        <mxCell id="G5_2ogjeCoOv_PMWdNw2-40" value="" style="shape=partialRectangle;html=1;whiteSpace=wrap;connectable=0;strokeColor=inherit;overflow=hidden;fillColor=none;top=0;left=0;bottom=0;right=0;pointerEvents=1;" vertex="1" parent="G5_2ogjeCoOv_PMWdNw2-39">
          <mxGeometry width="267" height="40" as="geometry">
            <mxRectangle width="267" height="40" as="alternateBounds" />
          </mxGeometry>
        </mxCell>
        <mxCell id="G5_2ogjeCoOv_PMWdNw2-41" value="Дата рождения" style="shape=partialRectangle;html=1;whiteSpace=wrap;connectable=0;strokeColor=inherit;overflow=hidden;fillColor=none;top=0;left=0;bottom=0;right=0;pointerEvents=1;" vertex="1" parent="G5_2ogjeCoOv_PMWdNw2-39">
          <mxGeometry x="267" width="266" height="40" as="geometry">
            <mxRectangle width="266" height="40" as="alternateBounds" />
          </mxGeometry>
        </mxCell>
        <mxCell id="G5_2ogjeCoOv_PMWdNw2-42" value="В формате дд.мм.гггг" style="shape=partialRectangle;html=1;whiteSpace=wrap;connectable=0;strokeColor=inherit;overflow=hidden;fillColor=none;top=0;left=0;bottom=0;right=0;pointerEvents=1;" vertex="1" parent="G5_2ogjeCoOv_PMWdNw2-39">
          <mxGeometry x="533" width="267" height="40" as="geometry">
            <mxRectangle width="267" height="40" as="alternateBounds" />
          </mxGeometry>
        </mxCell>
        <mxCell id="G5_2ogjeCoOv_PMWdNw2-43" value="" style="shape=tableRow;horizontal=0;startSize=0;swimlaneHead=0;swimlaneBody=0;strokeColor=inherit;top=0;left=0;bottom=0;right=0;collapsible=0;dropTarget=0;fillColor=none;points=[[0,0.5],[1,0.5]];portConstraint=eastwest;" vertex="1" parent="G5_2ogjeCoOv_PMWdNw2-22">
          <mxGeometry y="200" width="800" height="40" as="geometry" />
        </mxCell>
        <mxCell id="G5_2ogjeCoOv_PMWdNw2-44" value="" style="shape=partialRectangle;html=1;whiteSpace=wrap;connectable=0;strokeColor=inherit;overflow=hidden;fillColor=none;top=0;left=0;bottom=0;right=0;pointerEvents=1;" vertex="1" parent="G5_2ogjeCoOv_PMWdNw2-43">
          <mxGeometry width="267" height="40" as="geometry">
            <mxRectangle width="267" height="40" as="alternateBounds" />
          </mxGeometry>
        </mxCell>
        <mxCell id="G5_2ogjeCoOv_PMWdNw2-45" value="Электронная почта" style="shape=partialRectangle;html=1;whiteSpace=wrap;connectable=0;strokeColor=inherit;overflow=hidden;fillColor=none;top=0;left=0;bottom=0;right=0;pointerEvents=1;" vertex="1" parent="G5_2ogjeCoOv_PMWdNw2-43">
          <mxGeometry x="267" width="266" height="40" as="geometry">
            <mxRectangle width="266" height="40" as="alternateBounds" />
          </mxGeometry>
        </mxCell>
        <mxCell id="G5_2ogjeCoOv_PMWdNw2-46" value="" style="shape=partialRectangle;html=1;whiteSpace=wrap;connectable=0;strokeColor=inherit;overflow=hidden;fillColor=none;top=0;left=0;bottom=0;right=0;pointerEvents=1;" vertex="1" parent="G5_2ogjeCoOv_PMWdNw2-43">
          <mxGeometry x="533" width="267" height="40" as="geometry">
            <mxRectangle width="267" height="40" as="alternateBounds" />
          </mxGeometry>
        </mxCell>
        <mxCell id="G5_2ogjeCoOv_PMWdNw2-47" value="" style="shape=tableRow;horizontal=0;startSize=0;swimlaneHead=0;swimlaneBody=0;strokeColor=inherit;top=0;left=0;bottom=0;right=0;collapsible=0;dropTarget=0;fillColor=none;points=[[0,0.5],[1,0.5]];portConstraint=eastwest;" vertex="1" parent="G5_2ogjeCoOv_PMWdNw2-22">
          <mxGeometry y="240" width="800" height="40" as="geometry" />
        </mxCell>
        <mxCell id="G5_2ogjeCoOv_PMWdNw2-48" value="" style="shape=partialRectangle;html=1;whiteSpace=wrap;connectable=0;strokeColor=inherit;overflow=hidden;fillColor=none;top=0;left=0;bottom=0;right=0;pointerEvents=1;" vertex="1" parent="G5_2ogjeCoOv_PMWdNw2-47">
          <mxGeometry width="267" height="40" as="geometry">
            <mxRectangle width="267" height="40" as="alternateBounds" />
          </mxGeometry>
        </mxCell>
        <mxCell id="G5_2ogjeCoOv_PMWdNw2-49" value="Размер скидки" style="shape=partialRectangle;html=1;whiteSpace=wrap;connectable=0;strokeColor=inherit;overflow=hidden;fillColor=none;top=0;left=0;bottom=0;right=0;pointerEvents=1;" vertex="1" parent="G5_2ogjeCoOv_PMWdNw2-47">
          <mxGeometry x="267" width="266" height="40" as="geometry">
            <mxRectangle width="266" height="40" as="alternateBounds" />
          </mxGeometry>
        </mxCell>
        <mxCell id="G5_2ogjeCoOv_PMWdNw2-50" value="Размер максимальной скидки, доступной пользователю" style="shape=partialRectangle;html=1;whiteSpace=wrap;connectable=0;strokeColor=inherit;overflow=hidden;fillColor=none;top=0;left=0;bottom=0;right=0;pointerEvents=1;" vertex="1" parent="G5_2ogjeCoOv_PMWdNw2-47">
          <mxGeometry x="533" width="267" height="40" as="geometry">
            <mxRectangle width="267" height="40" as="alternateBounds" />
          </mxGeometry>
        </mxCell>
        <mxCell id="G5_2ogjeCoOv_PMWdNw2-51" value="" style="shape=tableRow;horizontal=0;startSize=0;swimlaneHead=0;swimlaneBody=0;strokeColor=inherit;top=0;left=0;bottom=0;right=0;collapsible=0;dropTarget=0;fillColor=none;points=[[0,0.5],[1,0.5]];portConstraint=eastwest;" vertex="1" parent="G5_2ogjeCoOv_PMWdNw2-22">
          <mxGeometry y="280" width="800" height="40" as="geometry" />
        </mxCell>
        <mxCell id="G5_2ogjeCoOv_PMWdNw2-52" value="" style="shape=partialRectangle;html=1;whiteSpace=wrap;connectable=0;strokeColor=inherit;overflow=hidden;fillColor=none;top=0;left=0;bottom=0;right=0;pointerEvents=1;" vertex="1" parent="G5_2ogjeCoOv_PMWdNw2-51">
          <mxGeometry width="267" height="40" as="geometry">
            <mxRectangle width="267" height="40" as="alternateBounds" />
          </mxGeometry>
        </mxCell>
        <mxCell id="G5_2ogjeCoOv_PMWdNw2-53" value="Количество бонусов" style="shape=partialRectangle;html=1;whiteSpace=wrap;connectable=0;strokeColor=inherit;overflow=hidden;fillColor=none;top=0;left=0;bottom=0;right=0;pointerEvents=1;" vertex="1" parent="G5_2ogjeCoOv_PMWdNw2-51">
          <mxGeometry x="267" width="266" height="40" as="geometry">
            <mxRectangle width="266" height="40" as="alternateBounds" />
          </mxGeometry>
        </mxCell>
        <mxCell id="G5_2ogjeCoOv_PMWdNw2-54" value="" style="shape=partialRectangle;html=1;whiteSpace=wrap;connectable=0;strokeColor=inherit;overflow=hidden;fillColor=none;top=0;left=0;bottom=0;right=0;pointerEvents=1;" vertex="1" parent="G5_2ogjeCoOv_PMWdNw2-51">
          <mxGeometry x="533" width="267" height="40" as="geometry">
            <mxRectangle width="267" height="40" as="alternateBounds" />
          </mxGeometry>
        </mxCell>
        <mxCell id="G5_2ogjeCoOv_PMWdNw2-55" value="" style="shape=table;startSize=0;container=1;collapsible=0;childLayout=tableLayout;" vertex="1" parent="1">
          <mxGeometry x="120" y="1641" width="800" height="320" as="geometry" />
        </mxCell>
        <mxCell id="G5_2ogjeCoOv_PMWdNw2-56" value="" style="shape=tableRow;horizontal=0;startSize=0;swimlaneHead=0;swimlaneBody=0;strokeColor=inherit;top=0;left=0;bottom=0;right=0;collapsible=0;dropTarget=0;fillColor=none;points=[[0,0.5],[1,0.5]];portConstraint=eastwest;" vertex="1" parent="G5_2ogjeCoOv_PMWdNw2-55">
          <mxGeometry width="800" height="40" as="geometry" />
        </mxCell>
        <mxCell id="G5_2ogjeCoOv_PMWdNw2-57" value="&lt;span style=&quot;font-weight: 700;&quot;&gt;Родительская сущность&lt;/span&gt;" style="shape=partialRectangle;html=1;whiteSpace=wrap;connectable=0;strokeColor=inherit;overflow=hidden;fillColor=none;top=0;left=0;bottom=0;right=0;pointerEvents=1;" vertex="1" parent="G5_2ogjeCoOv_PMWdNw2-56">
          <mxGeometry width="266" height="40" as="geometry">
            <mxRectangle width="266" height="40" as="alternateBounds" />
          </mxGeometry>
        </mxCell>
        <mxCell id="G5_2ogjeCoOv_PMWdNw2-58" value="&lt;span style=&quot;color: rgb(0, 0, 0); font-family: Helvetica; font-size: 12px; font-style: normal; font-variant-ligatures: normal; font-variant-caps: normal; font-weight: 700; letter-spacing: normal; orphans: 2; text-align: center; text-indent: 0px; text-transform: none; widows: 2; word-spacing: 0px; -webkit-text-stroke-width: 0px; white-space: normal; background-color: rgb(251, 251, 251); text-decoration-thickness: initial; text-decoration-style: initial; text-decoration-color: initial; display: inline !important; float: none;&quot;&gt;Атрибут&lt;/span&gt;" style="shape=partialRectangle;html=1;whiteSpace=wrap;connectable=0;strokeColor=inherit;overflow=hidden;fillColor=none;top=0;left=0;bottom=0;right=0;pointerEvents=1;" vertex="1" parent="G5_2ogjeCoOv_PMWdNw2-56">
          <mxGeometry x="266" width="268" height="40" as="geometry">
            <mxRectangle width="268" height="40" as="alternateBounds" />
          </mxGeometry>
        </mxCell>
        <mxCell id="G5_2ogjeCoOv_PMWdNw2-59" value="&lt;span style=&quot;font-weight: 700;&quot;&gt;Описание&lt;/span&gt;" style="shape=partialRectangle;html=1;whiteSpace=wrap;connectable=0;strokeColor=inherit;overflow=hidden;fillColor=none;top=0;left=0;bottom=0;right=0;pointerEvents=1;" vertex="1" parent="G5_2ogjeCoOv_PMWdNw2-56">
          <mxGeometry x="534" width="266" height="40" as="geometry">
            <mxRectangle width="266" height="40" as="alternateBounds" />
          </mxGeometry>
        </mxCell>
        <mxCell id="G5_2ogjeCoOv_PMWdNw2-60" value="" style="shape=tableRow;horizontal=0;startSize=0;swimlaneHead=0;swimlaneBody=0;strokeColor=inherit;top=0;left=0;bottom=0;right=0;collapsible=0;dropTarget=0;fillColor=none;points=[[0,0.5],[1,0.5]];portConstraint=eastwest;" vertex="1" parent="G5_2ogjeCoOv_PMWdNw2-55">
          <mxGeometry y="40" width="800" height="40" as="geometry" />
        </mxCell>
        <mxCell id="G5_2ogjeCoOv_PMWdNw2-61" value="Продукт" style="shape=partialRectangle;html=1;whiteSpace=wrap;connectable=0;strokeColor=inherit;overflow=hidden;fillColor=none;top=0;left=0;bottom=0;right=0;pointerEvents=1;" vertex="1" parent="G5_2ogjeCoOv_PMWdNw2-60">
          <mxGeometry width="266" height="40" as="geometry">
            <mxRectangle width="266" height="40" as="alternateBounds" />
          </mxGeometry>
        </mxCell>
        <mxCell id="G5_2ogjeCoOv_PMWdNw2-62" value="----" style="shape=partialRectangle;html=1;whiteSpace=wrap;connectable=0;strokeColor=inherit;overflow=hidden;fillColor=none;top=0;left=0;bottom=0;right=0;pointerEvents=1;" vertex="1" parent="G5_2ogjeCoOv_PMWdNw2-60">
          <mxGeometry x="266" width="268" height="40" as="geometry">
            <mxRectangle width="268" height="40" as="alternateBounds" />
          </mxGeometry>
        </mxCell>
        <mxCell id="G5_2ogjeCoOv_PMWdNw2-63" value="Объект продукта" style="shape=partialRectangle;html=1;whiteSpace=wrap;connectable=0;strokeColor=inherit;overflow=hidden;fillColor=none;top=0;left=0;bottom=0;right=0;pointerEvents=1;" vertex="1" parent="G5_2ogjeCoOv_PMWdNw2-60">
          <mxGeometry x="534" width="266" height="40" as="geometry">
            <mxRectangle width="266" height="40" as="alternateBounds" />
          </mxGeometry>
        </mxCell>
        <mxCell id="G5_2ogjeCoOv_PMWdNw2-64" value="" style="shape=tableRow;horizontal=0;startSize=0;swimlaneHead=0;swimlaneBody=0;strokeColor=inherit;top=0;left=0;bottom=0;right=0;collapsible=0;dropTarget=0;fillColor=none;points=[[0,0.5],[1,0.5]];portConstraint=eastwest;" vertex="1" parent="G5_2ogjeCoOv_PMWdNw2-55">
          <mxGeometry y="80" width="800" height="40" as="geometry" />
        </mxCell>
        <mxCell id="G5_2ogjeCoOv_PMWdNw2-65" value="" style="shape=partialRectangle;html=1;whiteSpace=wrap;connectable=0;strokeColor=inherit;overflow=hidden;fillColor=none;top=0;left=0;bottom=0;right=0;pointerEvents=1;" vertex="1" parent="G5_2ogjeCoOv_PMWdNw2-64">
          <mxGeometry width="266" height="40" as="geometry">
            <mxRectangle width="266" height="40" as="alternateBounds" />
          </mxGeometry>
        </mxCell>
        <mxCell id="G5_2ogjeCoOv_PMWdNw2-66" value="Бренд" style="shape=partialRectangle;html=1;whiteSpace=wrap;connectable=0;strokeColor=inherit;overflow=hidden;fillColor=none;top=0;left=0;bottom=0;right=0;pointerEvents=1;" vertex="1" parent="G5_2ogjeCoOv_PMWdNw2-64">
          <mxGeometry x="266" width="268" height="40" as="geometry">
            <mxRectangle width="268" height="40" as="alternateBounds" />
          </mxGeometry>
        </mxCell>
        <mxCell id="G5_2ogjeCoOv_PMWdNw2-67" value="Название бренда" style="shape=partialRectangle;html=1;whiteSpace=wrap;connectable=0;strokeColor=inherit;overflow=hidden;fillColor=none;top=0;left=0;bottom=0;right=0;pointerEvents=1;" vertex="1" parent="G5_2ogjeCoOv_PMWdNw2-64">
          <mxGeometry x="534" width="266" height="40" as="geometry">
            <mxRectangle width="266" height="40" as="alternateBounds" />
          </mxGeometry>
        </mxCell>
        <mxCell id="G5_2ogjeCoOv_PMWdNw2-68" value="" style="shape=tableRow;horizontal=0;startSize=0;swimlaneHead=0;swimlaneBody=0;strokeColor=inherit;top=0;left=0;bottom=0;right=0;collapsible=0;dropTarget=0;fillColor=none;points=[[0,0.5],[1,0.5]];portConstraint=eastwest;" vertex="1" parent="G5_2ogjeCoOv_PMWdNw2-55">
          <mxGeometry y="120" width="800" height="40" as="geometry" />
        </mxCell>
        <mxCell id="G5_2ogjeCoOv_PMWdNw2-69" value="" style="shape=partialRectangle;html=1;whiteSpace=wrap;connectable=0;strokeColor=inherit;overflow=hidden;fillColor=none;top=0;left=0;bottom=0;right=0;pointerEvents=1;" vertex="1" parent="G5_2ogjeCoOv_PMWdNw2-68">
          <mxGeometry width="266" height="40" as="geometry">
            <mxRectangle width="266" height="40" as="alternateBounds" />
          </mxGeometry>
        </mxCell>
        <mxCell id="G5_2ogjeCoOv_PMWdNw2-70" value="Название" style="shape=partialRectangle;html=1;whiteSpace=wrap;connectable=0;strokeColor=inherit;overflow=hidden;fillColor=none;top=0;left=0;bottom=0;right=0;pointerEvents=1;" vertex="1" parent="G5_2ogjeCoOv_PMWdNw2-68">
          <mxGeometry x="266" width="268" height="40" as="geometry">
            <mxRectangle width="268" height="40" as="alternateBounds" />
          </mxGeometry>
        </mxCell>
        <mxCell id="G5_2ogjeCoOv_PMWdNw2-71" value="Название продукта" style="shape=partialRectangle;html=1;whiteSpace=wrap;connectable=0;strokeColor=inherit;overflow=hidden;fillColor=none;top=0;left=0;bottom=0;right=0;pointerEvents=1;" vertex="1" parent="G5_2ogjeCoOv_PMWdNw2-68">
          <mxGeometry x="534" width="266" height="40" as="geometry">
            <mxRectangle width="266" height="40" as="alternateBounds" />
          </mxGeometry>
        </mxCell>
        <mxCell id="G5_2ogjeCoOv_PMWdNw2-72" value="" style="shape=tableRow;horizontal=0;startSize=0;swimlaneHead=0;swimlaneBody=0;strokeColor=inherit;top=0;left=0;bottom=0;right=0;collapsible=0;dropTarget=0;fillColor=none;points=[[0,0.5],[1,0.5]];portConstraint=eastwest;" vertex="1" parent="G5_2ogjeCoOv_PMWdNw2-55">
          <mxGeometry y="160" width="800" height="40" as="geometry" />
        </mxCell>
        <mxCell id="G5_2ogjeCoOv_PMWdNw2-73" value="" style="shape=partialRectangle;html=1;whiteSpace=wrap;connectable=0;strokeColor=inherit;overflow=hidden;fillColor=none;top=0;left=0;bottom=0;right=0;pointerEvents=1;" vertex="1" parent="G5_2ogjeCoOv_PMWdNw2-72">
          <mxGeometry width="266" height="40" as="geometry">
            <mxRectangle width="266" height="40" as="alternateBounds" />
          </mxGeometry>
        </mxCell>
        <mxCell id="G5_2ogjeCoOv_PMWdNw2-74" value="Категория" style="shape=partialRectangle;html=1;whiteSpace=wrap;connectable=0;strokeColor=inherit;overflow=hidden;fillColor=none;top=0;left=0;bottom=0;right=0;pointerEvents=1;" vertex="1" parent="G5_2ogjeCoOv_PMWdNw2-72">
          <mxGeometry x="266" width="268" height="40" as="geometry">
            <mxRectangle width="268" height="40" as="alternateBounds" />
          </mxGeometry>
        </mxCell>
        <mxCell id="G5_2ogjeCoOv_PMWdNw2-75" value="" style="shape=partialRectangle;html=1;whiteSpace=wrap;connectable=0;strokeColor=inherit;overflow=hidden;fillColor=none;top=0;left=0;bottom=0;right=0;pointerEvents=1;" vertex="1" parent="G5_2ogjeCoOv_PMWdNw2-72">
          <mxGeometry x="534" width="266" height="40" as="geometry">
            <mxRectangle width="266" height="40" as="alternateBounds" />
          </mxGeometry>
        </mxCell>
        <mxCell id="G5_2ogjeCoOv_PMWdNw2-76" value="" style="shape=tableRow;horizontal=0;startSize=0;swimlaneHead=0;swimlaneBody=0;strokeColor=inherit;top=0;left=0;bottom=0;right=0;collapsible=0;dropTarget=0;fillColor=none;points=[[0,0.5],[1,0.5]];portConstraint=eastwest;" vertex="1" parent="G5_2ogjeCoOv_PMWdNw2-55">
          <mxGeometry y="200" width="800" height="40" as="geometry" />
        </mxCell>
        <mxCell id="G5_2ogjeCoOv_PMWdNw2-77" value="" style="shape=partialRectangle;html=1;whiteSpace=wrap;connectable=0;strokeColor=inherit;overflow=hidden;fillColor=none;top=0;left=0;bottom=0;right=0;pointerEvents=1;" vertex="1" parent="G5_2ogjeCoOv_PMWdNw2-76">
          <mxGeometry width="266" height="40" as="geometry">
            <mxRectangle width="266" height="40" as="alternateBounds" />
          </mxGeometry>
        </mxCell>
        <mxCell id="G5_2ogjeCoOv_PMWdNw2-78" value="Объем" style="shape=partialRectangle;html=1;whiteSpace=wrap;connectable=0;strokeColor=inherit;overflow=hidden;fillColor=none;top=0;left=0;bottom=0;right=0;pointerEvents=1;" vertex="1" parent="G5_2ogjeCoOv_PMWdNw2-76">
          <mxGeometry x="266" width="268" height="40" as="geometry">
            <mxRectangle width="268" height="40" as="alternateBounds" />
          </mxGeometry>
        </mxCell>
        <mxCell id="G5_2ogjeCoOv_PMWdNw2-79" value="" style="shape=partialRectangle;html=1;whiteSpace=wrap;connectable=0;strokeColor=inherit;overflow=hidden;fillColor=none;top=0;left=0;bottom=0;right=0;pointerEvents=1;" vertex="1" parent="G5_2ogjeCoOv_PMWdNw2-76">
          <mxGeometry x="534" width="266" height="40" as="geometry">
            <mxRectangle width="266" height="40" as="alternateBounds" />
          </mxGeometry>
        </mxCell>
        <mxCell id="G5_2ogjeCoOv_PMWdNw2-80" value="" style="shape=tableRow;horizontal=0;startSize=0;swimlaneHead=0;swimlaneBody=0;strokeColor=inherit;top=0;left=0;bottom=0;right=0;collapsible=0;dropTarget=0;fillColor=none;points=[[0,0.5],[1,0.5]];portConstraint=eastwest;" vertex="1" parent="G5_2ogjeCoOv_PMWdNw2-55">
          <mxGeometry y="240" width="800" height="40" as="geometry" />
        </mxCell>
        <mxCell id="G5_2ogjeCoOv_PMWdNw2-81" value="" style="shape=partialRectangle;html=1;whiteSpace=wrap;connectable=0;strokeColor=inherit;overflow=hidden;fillColor=none;top=0;left=0;bottom=0;right=0;pointerEvents=1;" vertex="1" parent="G5_2ogjeCoOv_PMWdNw2-80">
          <mxGeometry width="266" height="40" as="geometry">
            <mxRectangle width="266" height="40" as="alternateBounds" />
          </mxGeometry>
        </mxCell>
        <mxCell id="G5_2ogjeCoOv_PMWdNw2-82" value="Наличие" style="shape=partialRectangle;html=1;whiteSpace=wrap;connectable=0;strokeColor=inherit;overflow=hidden;fillColor=none;top=0;left=0;bottom=0;right=0;pointerEvents=1;" vertex="1" parent="G5_2ogjeCoOv_PMWdNw2-80">
          <mxGeometry x="266" width="268" height="40" as="geometry">
            <mxRectangle width="268" height="40" as="alternateBounds" />
          </mxGeometry>
        </mxCell>
        <mxCell id="G5_2ogjeCoOv_PMWdNw2-83" value="Есть в наличии / нет в наличии" style="shape=partialRectangle;html=1;whiteSpace=wrap;connectable=0;strokeColor=inherit;overflow=hidden;fillColor=none;top=0;left=0;bottom=0;right=0;pointerEvents=1;" vertex="1" parent="G5_2ogjeCoOv_PMWdNw2-80">
          <mxGeometry x="534" width="266" height="40" as="geometry">
            <mxRectangle width="266" height="40" as="alternateBounds" />
          </mxGeometry>
        </mxCell>
        <mxCell id="G5_2ogjeCoOv_PMWdNw2-84" value="" style="shape=tableRow;horizontal=0;startSize=0;swimlaneHead=0;swimlaneBody=0;strokeColor=inherit;top=0;left=0;bottom=0;right=0;collapsible=0;dropTarget=0;fillColor=none;points=[[0,0.5],[1,0.5]];portConstraint=eastwest;" vertex="1" parent="G5_2ogjeCoOv_PMWdNw2-55">
          <mxGeometry y="280" width="800" height="40" as="geometry" />
        </mxCell>
        <mxCell id="G5_2ogjeCoOv_PMWdNw2-85" value="" style="shape=partialRectangle;html=1;whiteSpace=wrap;connectable=0;strokeColor=inherit;overflow=hidden;fillColor=none;top=0;left=0;bottom=0;right=0;pointerEvents=1;" vertex="1" parent="G5_2ogjeCoOv_PMWdNw2-84">
          <mxGeometry width="266" height="40" as="geometry">
            <mxRectangle width="266" height="40" as="alternateBounds" />
          </mxGeometry>
        </mxCell>
        <mxCell id="G5_2ogjeCoOv_PMWdNw2-86" value="Ингридиенты" style="shape=partialRectangle;html=1;whiteSpace=wrap;connectable=0;strokeColor=inherit;overflow=hidden;fillColor=none;top=0;left=0;bottom=0;right=0;pointerEvents=1;" vertex="1" parent="G5_2ogjeCoOv_PMWdNw2-84">
          <mxGeometry x="266" width="268" height="40" as="geometry">
            <mxRectangle width="268" height="40" as="alternateBounds" />
          </mxGeometry>
        </mxCell>
        <mxCell id="G5_2ogjeCoOv_PMWdNw2-87" value="Список ингридиентов. Ссылка на объект ингридиент" style="shape=partialRectangle;html=1;whiteSpace=wrap;connectable=0;strokeColor=inherit;overflow=hidden;fillColor=none;top=0;left=0;bottom=0;right=0;pointerEvents=1;" vertex="1" parent="G5_2ogjeCoOv_PMWdNw2-84">
          <mxGeometry x="534" width="266" height="40" as="geometry">
            <mxRectangle width="266" height="40" as="alternateBounds" />
          </mxGeometry>
        </mxCell>
        <mxCell id="G5_2ogjeCoOv_PMWdNw2-88" value="" style="shape=table;startSize=0;container=1;collapsible=0;childLayout=tableLayout;" vertex="1" parent="1">
          <mxGeometry x="120" y="2000" width="800" height="120" as="geometry" />
        </mxCell>
        <mxCell id="G5_2ogjeCoOv_PMWdNw2-89" value="" style="shape=tableRow;horizontal=0;startSize=0;swimlaneHead=0;swimlaneBody=0;strokeColor=inherit;top=0;left=0;bottom=0;right=0;collapsible=0;dropTarget=0;fillColor=none;points=[[0,0.5],[1,0.5]];portConstraint=eastwest;" vertex="1" parent="G5_2ogjeCoOv_PMWdNw2-88">
          <mxGeometry width="800" height="40" as="geometry" />
        </mxCell>
        <mxCell id="G5_2ogjeCoOv_PMWdNw2-90" value="&lt;span style=&quot;color: rgb(0, 0, 0); font-family: Helvetica; font-size: 12px; font-style: normal; font-variant-ligatures: normal; font-variant-caps: normal; font-weight: 700; letter-spacing: normal; orphans: 2; text-align: center; text-indent: 0px; text-transform: none; widows: 2; word-spacing: 0px; -webkit-text-stroke-width: 0px; white-space: normal; background-color: rgb(251, 251, 251); text-decoration-thickness: initial; text-decoration-style: initial; text-decoration-color: initial; display: inline !important; float: none;&quot;&gt;Дочерняя сущность&lt;/span&gt;" style="shape=partialRectangle;html=1;whiteSpace=wrap;connectable=0;strokeColor=inherit;overflow=hidden;fillColor=none;top=0;left=0;bottom=0;right=0;pointerEvents=1;" vertex="1" parent="G5_2ogjeCoOv_PMWdNw2-89">
          <mxGeometry width="267" height="40" as="geometry">
            <mxRectangle width="267" height="40" as="alternateBounds" />
          </mxGeometry>
        </mxCell>
        <mxCell id="G5_2ogjeCoOv_PMWdNw2-91" value="&lt;span style=&quot;font-weight: 700;&quot;&gt;Атрибут&lt;/span&gt;" style="shape=partialRectangle;html=1;whiteSpace=wrap;connectable=0;strokeColor=inherit;overflow=hidden;fillColor=none;top=0;left=0;bottom=0;right=0;pointerEvents=1;" vertex="1" parent="G5_2ogjeCoOv_PMWdNw2-89">
          <mxGeometry x="267" width="266" height="40" as="geometry">
            <mxRectangle width="266" height="40" as="alternateBounds" />
          </mxGeometry>
        </mxCell>
        <mxCell id="G5_2ogjeCoOv_PMWdNw2-92" value="&lt;span style=&quot;font-weight: 700;&quot;&gt;Описание&lt;/span&gt;" style="shape=partialRectangle;html=1;whiteSpace=wrap;connectable=0;strokeColor=inherit;overflow=hidden;fillColor=none;top=0;left=0;bottom=0;right=0;pointerEvents=1;" vertex="1" parent="G5_2ogjeCoOv_PMWdNw2-89">
          <mxGeometry x="533" width="267" height="40" as="geometry">
            <mxRectangle width="267" height="40" as="alternateBounds" />
          </mxGeometry>
        </mxCell>
        <mxCell id="G5_2ogjeCoOv_PMWdNw2-93" value="" style="shape=tableRow;horizontal=0;startSize=0;swimlaneHead=0;swimlaneBody=0;strokeColor=inherit;top=0;left=0;bottom=0;right=0;collapsible=0;dropTarget=0;fillColor=none;points=[[0,0.5],[1,0.5]];portConstraint=eastwest;" vertex="1" parent="G5_2ogjeCoOv_PMWdNw2-88">
          <mxGeometry y="40" width="800" height="40" as="geometry" />
        </mxCell>
        <mxCell id="G5_2ogjeCoOv_PMWdNw2-94" value="Ингридиент" style="shape=partialRectangle;html=1;whiteSpace=wrap;connectable=0;strokeColor=inherit;overflow=hidden;fillColor=none;top=0;left=0;bottom=0;right=0;pointerEvents=1;" vertex="1" parent="G5_2ogjeCoOv_PMWdNw2-93">
          <mxGeometry width="267" height="40" as="geometry">
            <mxRectangle width="267" height="40" as="alternateBounds" />
          </mxGeometry>
        </mxCell>
        <mxCell id="G5_2ogjeCoOv_PMWdNw2-95" value="-----" style="shape=partialRectangle;html=1;whiteSpace=wrap;connectable=0;strokeColor=inherit;overflow=hidden;fillColor=none;top=0;left=0;bottom=0;right=0;pointerEvents=1;" vertex="1" parent="G5_2ogjeCoOv_PMWdNw2-93">
          <mxGeometry x="267" width="266" height="40" as="geometry">
            <mxRectangle width="266" height="40" as="alternateBounds" />
          </mxGeometry>
        </mxCell>
        <mxCell id="G5_2ogjeCoOv_PMWdNw2-96" value="Название ингридиента" style="shape=partialRectangle;html=1;whiteSpace=wrap;connectable=0;strokeColor=inherit;overflow=hidden;fillColor=none;top=0;left=0;bottom=0;right=0;pointerEvents=1;" vertex="1" parent="G5_2ogjeCoOv_PMWdNw2-93">
          <mxGeometry x="533" width="267" height="40" as="geometry">
            <mxRectangle width="267" height="40" as="alternateBounds" />
          </mxGeometry>
        </mxCell>
        <mxCell id="G5_2ogjeCoOv_PMWdNw2-97" value="" style="shape=tableRow;horizontal=0;startSize=0;swimlaneHead=0;swimlaneBody=0;strokeColor=inherit;top=0;left=0;bottom=0;right=0;collapsible=0;dropTarget=0;fillColor=none;points=[[0,0.5],[1,0.5]];portConstraint=eastwest;" vertex="1" parent="G5_2ogjeCoOv_PMWdNw2-88">
          <mxGeometry y="80" width="800" height="40" as="geometry" />
        </mxCell>
        <mxCell id="G5_2ogjeCoOv_PMWdNw2-98" value="" style="shape=partialRectangle;html=1;whiteSpace=wrap;connectable=0;strokeColor=inherit;overflow=hidden;fillColor=none;top=0;left=0;bottom=0;right=0;pointerEvents=1;" vertex="1" parent="G5_2ogjeCoOv_PMWdNw2-97">
          <mxGeometry width="267" height="40" as="geometry">
            <mxRectangle width="267" height="40" as="alternateBounds" />
          </mxGeometry>
        </mxCell>
        <mxCell id="G5_2ogjeCoOv_PMWdNw2-99" value="INCI" style="shape=partialRectangle;html=1;whiteSpace=wrap;connectable=0;strokeColor=inherit;overflow=hidden;fillColor=none;top=0;left=0;bottom=0;right=0;pointerEvents=1;" vertex="1" parent="G5_2ogjeCoOv_PMWdNw2-97">
          <mxGeometry x="267" width="266" height="40" as="geometry">
            <mxRectangle width="266" height="40" as="alternateBounds" />
          </mxGeometry>
        </mxCell>
        <mxCell id="G5_2ogjeCoOv_PMWdNw2-100" value="Наименование ингридиента в соответствии с номенклатурой INCI" style="shape=partialRectangle;html=1;whiteSpace=wrap;connectable=0;strokeColor=inherit;overflow=hidden;fillColor=none;top=0;left=0;bottom=0;right=0;pointerEvents=1;" vertex="1" parent="G5_2ogjeCoOv_PMWdNw2-97">
          <mxGeometry x="533" width="267" height="40" as="geometry">
            <mxRectangle width="267" height="40" as="alternateBounds" />
          </mxGeometry>
        </mxCell>
      </root>
    </mxGraphModel>
  </diagram>
</mxfile>
